<?xml version="1.0" encoding="UTF-8"?><svg id="b" xmlns="http://www.w3.org/2000/svg" viewBox="0 0 407.79 57.88"><g id="c"><path d="M47.57,25.29c-.89,1.48-1.84,2.93-2.83,4.34-6.79,9.72-15.26,17.5-18.55,20.36-3.3-2.82-11.76-10.48-18.55-20.13-.99-1.4-1.94-2.85-2.83-4.33-.89,1.63-1.65,3.24-2.29,4.82C.86,34.43.02,38.35.01,42.08,0,45.31,0,48.56,0,51.44c0,5.51.01,6.32.01,6.38h4.48c0-.11-.02-6.36,0-15.74,0-2.41.44-4.84,1.18-7.25,8.47,11.29,18.42,19.27,19.14,19.84l1.4,1.11,1.4-1.13c.72-.58,10.65-8.68,19.11-20.05.75,2.44,1.19,4.91,1.19,7.36v15.9h4.48v-15.9c0-3.79-.85-7.75-2.52-11.87-.64-1.59-1.41-3.19-2.3-4.82Z" style="fill:#c17e3d;"></path><polygon points="5.61 24.12 5.61 24.13 5.61 24.11 5.61 24.12" style="fill:#fff;"></polygon><polygon points="5.61 24.12 5.61 24.13 5.61 24.11 5.61 24.12" style="fill:#fff;"></polygon><polygon points="46.78 23.91 46.78 23.92 46.79 23.91 46.78 23.91" style="fill:#fff;"></polygon><polygon points="46.78 23.91 46.78 23.92 46.79 23.91 46.78 23.91" style="fill:#fff;"></polygon><path d="M46.78,23.2l-.69-1.18-.67-1.07-33.01.17c5.04-7.13,11.1-12.88,13.79-15.28,2.5,2.2,7.89,7.23,12.67,13.59h5.53c-.12-.18-.24-.36-.37-.54-1.24-1.78-2.62-3.59-4.14-5.41C33.83,6.18,27.85,1.34,27.6,1.14l-1.42-1.14-1.41,1.15c-.25.21-6.21,5.11-12.26,12.45-1.53,1.85-2.91,3.68-4.16,5.48-.74,1.07-1.43,2.13-2.07,3.19l-.66,1.14,1.36,2.23,33.01-.17c-5.04,7.13-11.09,12.87-13.79,15.28-2.5-2.2-7.88-7.22-12.66-13.58h-5.53c.12.18.24.36.36.53,1.24,1.78,2.62,3.59,4.14,5.41,6.07,7.29,12.05,12.13,12.3,12.34l1.42,1.14,1.41-1.15c.25-.21,6.21-5.11,12.26-12.45,1.53-1.85,2.91-3.68,4.16-5.48.56-.8,1.07-1.6,1.57-2.4h.02s.34-.58.34-.58c.04-.07.09-.14.13-.21h0s.67-1.12.67-1.12Z" style="fill:#c17e3d;"></path><text transform="translate(62.83 38.72)" style="fill:#222; font-family:WorkSans-Medium, &#39;Work Sans&#39;; font-size:28.9px; font-variation-settings:&#39;wght&#39; 500; font-weight:500;"><tspan x="0" y="0" style="letter-spacing:.19em;">S</tspan><tspan x="24.15" y="0" style="letter-spacing:.19em;">U</tspan><tspan x="50.2" y="0" style="letter-spacing:.19em;">N</tspan><tspan x="76.92" y="0" style="letter-spacing:.17em;">D</tspan><tspan x="102.67" y="0" style="letter-spacing:.13em;">A</tspan><tspan x="125.62" y="0" style="letter-spacing:.2em;">Y </tspan><tspan x="163.83" y="0" style="letter-spacing:.19em;">M</tspan><tspan x="194.57" y="0" style="letter-spacing:.19em;">U</tspan><tspan x="220.61" y="0" style="letter-spacing:.19em;">S</tspan><tspan x="244.79" y="0" style="letter-spacing:.19em;">I</tspan><tspan x="259.09" y="0" style="letter-spacing:.19em;">C</tspan><tspan x="284.37" y="0" style="letter-spacing:.2em;">IA</tspan><tspan x="323.69" y="0" style="letter-spacing:.2em;">N</tspan></text></g></svg>