<?xml version="1.0" encoding="UTF-8"?><svg id="b" xmlns="http://www.w3.org/2000/svg" viewBox="0 0 144.75 159.9"><g id="c"><path d="M131.43,69.88c-2.47,4.09-5.09,8.1-7.81,12-18.76,26.86-42.17,48.34-51.26,56.25-9.11-7.8-32.5-28.95-51.25-55.62-2.73-3.88-5.36-7.88-7.83-11.97-2.45,4.5-4.56,8.94-6.33,13.31C2.38,95.13.06,105.95.03,116.25,0,125.16,0,134.15,0,142.12c0,15.21.03,17.45.03,17.62l12.38-.03c0-.27-.06-17.53,0-43.44.02-6.66,1.22-13.38,3.27-20.03,23.41,31.2,50.87,53.23,52.87,54.82l3.88,3.08,3.85-3.11c1.99-1.61,29.41-23.99,52.79-55.38,2.08,6.73,3.29,13.55,3.29,20.33v43.91h12.38v-43.91c0-10.46-2.34-21.41-6.97-32.78-1.78-4.38-3.89-8.82-6.35-13.32Z" style="fill:#c17e3d;"></path><path d="M15.49,66.63s.01.02.02.03v-.06s-.01.02-.02.03Z" style="fill:#fff;"></path><path d="M15.49,66.63s.01.02.02.03v-.06s-.01.02-.02.03Z" style="fill:#fff;"></path><path d="M129.25,66.04v.04s0-.01.01-.02c0,0,0-.01-.01-.02Z" style="fill:#fff;"></path><path d="M129.25,66.04v.04s0-.01.01-.02c0,0,0-.01-.01-.02Z" style="fill:#fff;"></path><path d="M129.25,64.08l-1.9-3.25-1.86-2.95-91.2.47c13.91-19.71,30.65-35.58,38.1-42.22,6.91,6.08,21.79,19.96,35,37.53h15.28c-.34-.5-.67-.99-1.02-1.49-3.43-4.92-7.24-9.91-11.43-14.95C93.46,17.08,76.93,3.71,76.24,3.15l-3.91-3.15-3.89,3.18c-.69.57-17.16,14.12-33.87,34.39-4.21,5.11-8.04,10.16-11.49,15.14-2.05,2.96-3.95,5.9-5.73,8.81l-1.83,3.14,3.76,6.15,91.19-.47c-13.91,19.7-30.65,35.57-38.09,42.21-6.91-6.07-21.78-19.96-34.99-37.52h-15.29c.33.49.66.98,1.01,1.48,3.43,4.92,7.24,9.91,11.43,14.95,16.76,20.15,33.29,33.52,33.98,34.08l3.91,3.15,3.89-3.18c.69-.57,17.16-14.12,33.87-34.4,4.21-5.11,8.04-10.16,11.49-15.14,1.54-2.22,2.97-4.42,4.35-6.62l.06-.03.94-1.57c.12-.19.25-.39.37-.58h-.02s1.86-3.1,1.86-3.1Z" style="fill:#c17e3d;"></path></g></svg>